<?xml version="1.0" standalone="no"?> <!DOCTYPE svg PUBLIC "-//W3C//DTD SVG 1.0//EN" "http://www.w3.org/TR/2001/REC-SVG-20010904/DTD/svg10.dtd" > <svg xmlns="http://www.w3.org/2000/svg" width="100%" height="100%">
<defs >
<font id="ufontscomhelveticamedium" horiz-adv-x="1012" ><font-face
    font-family="Helvetica Medium"
    units-per-em="2048"
    panose-1="2 11 6 0 0 0 0 0 0 0"
    ascent="1481"
    descent="-432"
    alphabetic="0" />
<missing-glyph horiz-adv-x="1536" d="M256 0V1280H1280V0H256ZM1248 32V1248H288V32H1248Z" />
<glyph unicode=" " glyph-name="space" horiz-adv-x="532" />
<glyph unicode="!" glyph-name="exclam" horiz-adv-x="531" d="M142 1030L209 399H326L392 1030L391 1450H142V1030ZM133 0H400V250H133V0Z" />
<glyph unicode="&quot;" glyph-name="quotedbl" horiz-adv-x="844" d="M142 877H346V1450H142V877ZM494 877H699V1450H494V877Z" />
<glyph unicode="$" glyph-name="dollar" horiz-adv-x="1065" d="M580 623Q700 588 764 539T828 387Q828 166 580 146V623ZM8 441Q8 292 69 186T239 25Q349 -31 494 -33V-191H580V-33Q684 -28 770 1T920 86T1019 226Q1055 310 1055 420Q1055 557 991 646T825 785T580
873V1301Q787 1301 793 1086H1020Q1020 1215 963 1304T806 1437T580 1481V1641H494V1481Q374 1481 270 1434Q166 1388 104 1297T41 1082Q41 945 106 858Q169 770 264 723T494 637V146Q236 157 236 441H8ZM494 891Q271 943 271 1102Q271 1301 494 1301V891Z" />
<glyph unicode="%" glyph-name="percent" horiz-adv-x="1966" d="M502 -47H658L901 432L1436 1471H1282L1032 985L502 -47ZM1485 -29Q1595 -29 1672 28T1788 177T1827 373Q1827 478 1788 571T1671 723T1485 781Q1379 781 1303 723T1188 571T1149 373Q1149 297
1170 225T1234 95Q1277 38 1340 5Q1404 -29 1485 -29ZM1333 373Q1333 645 1485 645Q1643 645 1643 373Q1643 250 1605 176Q1567 103 1485 103Q1333 103 1333 373ZM477 641Q587 641 664 698Q742 754 780 846T819 1043Q819 1148 780 1241Q741 1335 663 1392T477 1450Q371
1450 295 1393T180 1241Q142 1146 142 1043Q142 938 180 846T294 698T477 641ZM325 1043Q325 1315 477 1315Q635 1315 635 1043Q635 919 597 846T477 772Q325 772 325 1043Z" />
<glyph unicode="&amp;" glyph-name="ampersand" horiz-adv-x="1295" d="M604 1311Q667 1311 706 1263T746 1143Q746 1065 703 1014T576 908Q541 955 515 991T471 1066T452 1147Q452 1219 495 1265T604 1311ZM793 316Q777 295 751 264T696 210T622 170T518 154Q415
154 353 217T291 396Q291 456 312 499T367 573T441 629T510 670L793 316ZM1045 0H1325L1047 336Q1143 486 1159 690H961Q954 579 914 496L695 768Q810 832 882 925Q955 1018 955 1137Q955 1246 905 1324T774 1442T596 1481Q499 1481 418 1438T290 1317T243 1137Q243
1052 279 982T387 819Q238 739 148 640T57 400Q57 268 115 171T277 23T510 -29Q763 -29 910 162L1045 0Z" />
<glyph unicode="&apos;" glyph-name="quotesingle" horiz-adv-x="531" d="M141 877Q256 891 323 972T391 1172V1450H141V1172H266Q266 1010 141 994V877Z" />
<glyph unicode="(" glyph-name="parenleft" horiz-adv-x="531" d="M559 -383Q497 -278 451 -167T375 60T330 295T315 531Q315 1034 559 1481H373Q282 1338 218 1184T120 870T85 547Q85 363 121 200T222 -105Q285 -245 373 -383H559Z" />
<glyph unicode=")" glyph-name="parenright" horiz-adv-x="531" d="M-29 1481Q215 1063 215 555Q215 392 188 231T106 -86T-29 -383H155Q248 -246 315 -93Q380 60 414 220T449 543Q449 728 412 892T309 1197Q244 1339 156 1481H-29Z" />
<glyph unicode="*" glyph-name="asterisk" horiz-adv-x="713" d="M248 1082L110 891L219 811L357 1010L498 811L609 891L465 1082L695 1159L647 1293L428 1204V1450H291V1204L66 1293L24 1159L248 1082Z" />
<glyph unicode="," glyph-name="comma" horiz-adv-x="531" d="M127 0H267Q267 -70 231 -124Q196 -179 133 -195V-320Q213 -305 273 -261T369 -149Q402 -82 404 0V275H127V0Z" />
<glyph unicode="-" glyph-name="hyphen" horiz-adv-x="756" d="M86 445H670V662H86V445Z" />
<glyph unicode="." glyph-name="period" horiz-adv-x="531" d="M127 0H404V275H127V0Z" />
<glyph unicode="/" glyph-name="slash" horiz-adv-x="666" d="M-62 -33H151L338 449L729 1481H510L330 1002L-62 -33Z" />
<glyph unicode="0" glyph-name="zero" horiz-adv-x="1065" d="M535 162Q440 162 383 234T302 427T278 711Q278 870 301 990T382 1181T535 1252Q674 1252 734 1104Q793 957 793 711Q793 462 733 312Q674 162 535 162ZM535 1450Q262 1450 154 1232T46 711Q46 572
68 445Q89 319 143 210Q197 102 294 37T535 -29Q678 -29 774 36T924 210T999 445Q1020 572 1020 711Q1020 1013 913 1231T535 1450Z" />
<glyph unicode="1" glyph-name="one" horiz-adv-x="1065" d="M77 1002V1184Q180 1184 268 1207T415 1283T490 1417H678V0H428V1002H77Z" />
<glyph unicode="2" glyph-name="two" horiz-adv-x="1065" d="M1012 207H330Q344 252 378 291Q413 330 458 364T586 453T703 531Q847 634 931 747T1016 1010Q1016 1113 971 1213T823 1382T559 1450Q408 1450 299 1379T134 1183T78 899H309Q313 1067 368 1159Q422
1252 549 1252Q681 1252 735 1177T789 1002Q787 902 726 825T565 677T361 535Q54 328 51 0H1012V207Z" />
<glyph unicode="3" glyph-name="three" horiz-adv-x="1065" d="M436 658Q444 658 460 659T486 660Q629 660 714 607T799 416Q799 339 764 282T668 193T531 162Q403 162 335 247T266 468L36 467Q40 316 96 205T262 33T531 -29Q666 -29 780 24T961 176Q1028 275
1028 404Q1028 541 961 636T776 756V764Q872 799 921 878Q971 956 971 1065Q971 1185 908 1273T743 1406Q642 1450 531 1450Q425 1450 340 1414T194 1312T99 1158T61 967H293Q293 1044 318 1109T396 1213T527 1252Q588 1252 637 1227Q687 1202 714 1157T741 1055Q741
939 658 886T436 832V658Z" />
<glyph unicode="4" glyph-name="four" horiz-adv-x="1065" d="M1024 518H844V1417H629L24 561V336H629V0H844V336H1024V518ZM625 1143H629V518H200L625 1143Z" />
<glyph unicode="5" glyph-name="five" horiz-adv-x="1065" d="M69 641H300Q350 772 527 772Q612 772 672 729T764 613Q795 542 795 463Q795 384 765 315Q736 246 677 204T535 162Q422 162 355 224T275 399H42Q48 263 113 167Q179 70 290 21T539 -29Q699 -29 809
48Q919 123 971 240T1024 479Q1024 613 971 722T818 893T580 955Q510 955 439 926T326 848L321 852L391 1213H951V1417H219L69 641Z" />
<glyph unicode="6" glyph-name="six" horiz-adv-x="1065" d="M545 162Q426 162 360 249T293 457Q293 575 360 661Q426 748 545 748Q624 748 680 707T767 598Q795 531 795 457Q795 337 728 250Q662 162 545 162ZM996 1057Q990 1172 931 1262T777 1401T572 1450Q387
1450 268 1342T96 1065T43 713Q43 547 66 415T147 183T304 28T553 -29Q690 -29 798 35Q906 97 965 208T1024 457Q1024 557 994 644T906 796T764 897T576 934Q482 934 402 891Q323 847 279 764L275 768Q281 862 292 937T332 1086T417 1205T559 1252Q651 1252 706
1200T768 1057H996Z" />
<glyph unicode="7" glyph-name="seven" horiz-adv-x="1065" d="M43 1213H777Q627 1044 510 848T320 434T232 0H482Q496 188 537 357Q579 526 646 675T804 961Q895 1096 1008 1225V1417H43V1213Z" />
<glyph unicode="8" glyph-name="eight" horiz-adv-x="1065" d="M535 154Q415 154 341 224Q266 295 266 416Q266 532 345 597T533 662Q600 662 661 634T761 549T799 416Q799 295 725 224Q652 154 535 154ZM535 -29Q678 -29 790 25T965 179Q1028 280 1028 416Q1028
550 961 640T772 764V768Q867 804 919 879T971 1057Q971 1180 920 1268T770 1403T535 1450Q396 1450 298 1404T149 1269Q99 1181 99 1057Q99 953 149 878Q200 803 293 768V764Q174 730 106 640T37 416Q37 280 101 179T278 25T535 -29ZM535 1264Q629 1264 692 1206Q756
1149 756 1047Q756 981 725 935T643 864T535 840Q445 840 380 895T314 1047Q314 1150 375 1207Q437 1264 535 1264Z" />
<glyph unicode="9" glyph-name="nine" horiz-adv-x="1065" d="M518 1252Q598 1252 655 1211T740 1102T768 959Q768 884 740 817T654 707Q597 666 518 666Q441 666 385 707T301 815T272 959Q272 1034 300 1101T383 1210T518 1252ZM66 357Q71 271 106 201T201 79T336
-1T494 -29Q679 -29 798 78T971 354T1024 707Q1024 874 1001 1006T923 1238T770 1394T527 1450Q377 1450 268 1386T101 1211T43 963Q43 820 98 712T254 543Q354 484 486 484Q695 484 793 654L795 649Q785 520 763 418T678 239T502 162Q415 162 361 215T297 357H66Z"
/>
<glyph unicode=":" glyph-name="colon" horiz-adv-x="531" d="M127 748H404V1026H127V748ZM127 0H404V275H127V0Z" />
<glyph unicode=";" glyph-name="semicolon" horiz-adv-x="531" d="M127 0H267Q267 -70 231 -124Q196 -179 133 -195V-320Q213 -305 273 -261T369 -149Q402 -82 404 0V275H127V0ZM127 748H404V1026H127V748Z" />
<glyph unicode="&lt;" glyph-name="less" horiz-adv-x="1164" d="M1094 191L342 510L1094 836V1043L69 582V441L1094 -17V191Z" />
<glyph unicode="&gt;" glyph-name="greater" horiz-adv-x="1164" d="M69 191V-17L1094 441V582L69 1043V836L824 510L69 191Z" />
<glyph unicode="?" glyph-name="question" horiz-adv-x="1065" d="M301 985Q301 1127 362 1210T545 1293Q588 1293 633 1268Q679 1243 710 1191Q742 1138 742 1061Q742 999 722 956Q701 914 675 889Q649 865 576 803Q521 754 489 705T440 582T424 391H639Q639
483 660 543T717 642T815 731Q881 792 912 827T967 922T991 1069Q991 1198 934 1291T776 1432Q676 1481 553 1481Q445 1481 356 1446Q267 1412 202 1346Q138 1281 104 1189T70 985H301ZM391 0H662V250H391V0Z" />
<glyph unicode="@" glyph-name="at" horiz-adv-x="1563" d="M703 441Q632 441 587 491Q543 542 543 623Q543 702 578 785Q614 868 677 923Q741 977 819 977Q883 977 931 923T979 801Q979 724 942 639T842 497T703 441ZM1213 1102H1069L1037 981Q967 1129 811 1129Q686
1129 585 1053Q485 977 429 856T373 606Q373 521 411 447Q449 374 516 330Q583 287 666 287Q725 287 785 319Q846 352 889 400H893Q896 344 930 316T1012 287Q1077 287 1158 325T1315 439T1437 630T1485 889Q1485 1016 1432 1125T1285 1314T1070 1437T815 1481Q617
1481 446 1383Q275 1286 174 1117Q74 948 74 748Q74 579 131 435Q189 291 292 186T532 24T824 -33Q944 -33 1058 7T1267 121T1428 297H1286Q1205 204 1085 152Q964 101 832 101Q664 101 527 179Q391 256 313 402Q236 547 236 740Q236 907 309 1047T516 1268T815
1350Q963 1350 1086 1290Q1208 1231 1279 1120T1350 865Q1350 746 1311 646T1212 487T1090 428Q1051 428 1051 482Q1051 525 1065 561L1213 1102Z" />
<glyph unicode="A" glyph-name="A" horiz-adv-x="1295" d="M428 574H862L647 1196L428 574ZM-34 0L514 1450H785L1333 0H1061L934 381H357L223 0H-34Z" />
<glyph unicode="B" glyph-name="B" horiz-adv-x="1381" d="M383 658V207H832Q906 207 960 234T1042 313T1070 436Q1070 540 1007 599T832 658H383ZM137 0V1450H832Q961 1450 1057 1410T1206 1287T1258 1086Q1258 979 1205 901Q1177 859 1143 832T1080 790T1051
776Q1183 746 1253 649Q1321 552 1321 400Q1321 284 1265 194T1091 52T795 0H137ZM383 1239V840H795Q888 840 948 894T1008 1043Q1008 1149 956 1194T795 1239H383Z" />
<glyph unicode="C" glyph-name="C" horiz-adv-x="1432" d="M1360 985Q1347 1138 1264 1250T1048 1422T756 1481Q598 1481 470 1422T251 1258Q161 1153 113 1015T65 719Q65 566 112 429T251 188T470 25T756 -33Q883 -33 992 9T1183 128Q1264 206 1311 313Q1358
421 1364 549H1123Q1112 443 1067 357T942 220T756 170Q614 170 514 248T362 453T311 721Q311 864 362 991T513 1197T756 1276Q902 1276 988 1199T1114 985H1360Z" />
<glyph unicode="D" glyph-name="D" horiz-adv-x="1432" d="M391 1239V207H643Q831 207 936 273T1083 452Q1122 564 1122 719Q1122 880 1083 994T936 1174Q830 1239 643 1239H391ZM145 0V1450H738Q898 1450 1018 1395T1217 1240Q1294 1141 1331 1009T1368 719Q1368
566 1331 436Q1294 307 1217 209T1019 56T738 0H145Z" />
<glyph unicode="E" glyph-name="E" horiz-adv-x="1252" d="M150 0V1450H1180V1227H396V848H1123V641H396V217H1192V0H150Z" />
<glyph unicode="F" glyph-name="F" horiz-adv-x="1164" d="M141 0V1450H1131V1227H387V848H1041V641H387V0H141Z" />
<glyph unicode="G" glyph-name="G" horiz-adv-x="1477" d="M1381 764H772V565H1153Q1151 445 1104 355Q1057 266 967 218T750 170Q610 170 511 248T361 452T311 721Q311 828 339 926T422 1104T561 1230T750 1276Q843 1276 923 1243T1057 1143T1123 985H1364Q1352
1106 1299 1200T1163 1356T973 1449T750 1481Q593 1481 465 1422T247 1258T109 1014Q62 876 62 719Q62 566 109 429T246 188T465 25T750 -33Q842 -33 914 -14T1050 49Q1115 93 1184 170L1219 0H1381V764Z" />
<glyph unicode="H" glyph-name="H" horiz-adv-x="1432" d="M137 0V1450H387V873H1041V1450H1295V0H1041V654H387V0H137Z" />
<glyph unicode="I" glyph-name="I" horiz-adv-x="531" d="M141 0V1450H387V0H141Z" />
<glyph unicode="J" glyph-name="J" horiz-adv-x="1065" d="M918 1450H670V453Q670 309 627 240T469 170Q361 170 318 236T275 432V508H20V432Q20 295 65 191T208 27T453 -33Q643 -33 745 35T883 211Q918 320 918 467V1450Z" />
<glyph unicode="K" glyph-name="K" horiz-adv-x="1342" d="M137 0V1450H383V789L1024 1450H1333L764 869L1372 0H1057L592 690L383 488V0H137Z" />
<glyph unicode="L" glyph-name="L" horiz-adv-x="1118" d="M137 0V1450H383V217H1118V0H137Z" />
<glyph unicode="M" glyph-name="M" horiz-adv-x="1741" d="M129 0V1450H482L875 312L1266 1450H1616V0H1376V1118L975 0H768L365 1116V0H129Z" />
<glyph unicode="N" glyph-name="N" horiz-adv-x="1432" d="M133 0V1450H396L1055 381V1450H1297V0H1033L373 1061V0H133Z" />
<glyph unicode="O" glyph-name="O" horiz-adv-x="1518" d="M760 1481Q603 1481 475 1422T255 1258Q165 1153 117 1015T69 719Q69 566 116 429T255 188T475 25T760 -33Q916 -33 1045 25T1264 187Q1353 291 1400 427T1448 719Q1448 878 1401 1016T1264 1258T1046
1422T760 1481ZM760 1276Q866 1276 948 1231T1085 1105Q1139 1026 1166 927T1194 721Q1194 617 1167 518Q1139 420 1084 340Q1029 261 947 216T760 170Q619 170 518 248T366 453T315 721Q315 826 344 926T429 1105T569 1230T760 1276Z" />
<glyph unicode="P" glyph-name="P" horiz-adv-x="1295" d="M379 1239V764H750Q850 764 925 820T1000 1002Q1000 1239 756 1239H379ZM133 0V1450H764Q952 1450 1061 1380T1211 1207T1252 998Q1252 892 1212 792T1062 622T765 553H379V0H133Z" />
<glyph unicode="Q" glyph-name="Q" horiz-adv-x="1518" d="M918 207Q841 170 760 170Q619 170 518 248T366 453T315 721Q315 826 344 926T429 1105T569 1230T760 1276Q898 1276 997 1197T1145 990T1194 719Q1194 470 1065 320L893 475L776 332L918 207ZM1239 166Q1342
265 1395 414T1448 719Q1448 878 1401 1016T1264 1258T1046 1422T760 1481Q603 1481 475 1422T255 1258Q165 1153 117 1015T69 719Q69 566 116 429T255 188T475 25T760 -33Q940 -33 1098 51L1305 -129L1428 4L1239 166Z" />
<glyph unicode="R" glyph-name="R" horiz-adv-x="1381" d="M383 1239V789H799Q917 789 981 848T1045 1018Q1045 1146 978 1192T795 1239H383ZM137 0V1450H819Q1051 1450 1173 1347T1295 1055Q1295 879 1216 798Q1173 754 1119 720T1055 686Q1142 675 1206 606Q1271
536 1271 381Q1271 377 1271 373Q1271 79 1350 0H1077Q1041 60 1041 211Q1041 352 1017 435T932 558T756 598H383V0H137Z" />
<glyph unicode="S" glyph-name="S" horiz-adv-x="1295" d="M57 484Q61 311 141 195T356 23T658 -33Q809 -33 939 14T1148 163T1227 416Q1227 493 1197 567T1105 700T954 789Q916 800 731 848Q547 895 538 899Q364 944 364 1086Q364 1185 445 1230T631 1276Q720
1276 787 1250T895 1166T942 1018H1188Q1188 1165 1116 1269T918 1427T639 1481Q505 1481 385 1433Q265 1386 192 1290T119 1055Q119 914 189 833T358 715Q454 679 621 638T858 565Q979 529 979 387Q979 332 947 282Q915 233 847 202T674 170Q513 170 414 248T314
484H57Z" />
<glyph unicode="T" glyph-name="T" horiz-adv-x="1164" d="M4 1227V1450H1164V1227H707V0H460L459 1227H4Z" />
<glyph unicode="U" glyph-name="U" horiz-adv-x="1432" d="M129 518Q129 338 200 214T403 29T713 -33Q891 -33 1024 28T1231 215Q1305 339 1305 518V1450H1051V606Q1051 476 1032 390T939 243T713 183Q596 183 528 218T426 315Q394 375 386 442Q377 510 377 606V1450H129V518Z"
/>
<glyph unicode="V" glyph-name="V" horiz-adv-x="1204" d="M459 0L-17 1450H240L609 301L971 1450H1227L738 0H459Z" />
<glyph unicode="W" glyph-name="W" horiz-adv-x="1878" d="M379 0L3 1450H258L522 340L811 1450H1065L1354 340L1620 1450H1874L1477 0H1223L934 1110L639 0H379Z" />
<glyph unicode="X" glyph-name="X" horiz-adv-x="1295" d="M498 748L-8 0H279L639 549L996 0H1301L795 748L1271 1450H987L647 938L322 1450H25L498 748Z" />
<glyph unicode="Y" glyph-name="Y" horiz-adv-x="1295" d="M522 0H772V565L1309 1450H1028L654 801L275 1450H-17L522 565V0Z" />
<glyph unicode="Z" glyph-name="Z" horiz-adv-x="1252" d="M107 1227V1450H1197V1252L361 217H1215V0H41V207L875 1227H107Z" />
<glyph unicode="[" glyph-name="bracketleft" horiz-adv-x="576" d="M137 -383H580V-203H353V266V1301H580V1481H137V649V-383Z" />
<glyph unicode="\" glyph-name="backslash" horiz-adv-x="666" d="M152 1481H-62L119 1002L510 -33H729L545 449L152 1481Z" />
<glyph unicode="]" glyph-name="bracketright" horiz-adv-x="576" d="M445 1481H-8V1301H224V832V-203H-8V-383H445V449V1481Z" />
<glyph unicode="_" glyph-name="underscore" horiz-adv-x="979" d="M991 -250V-150H-13V-250H991Z" />
<glyph unicode="`" glyph-name="grave" horiz-adv-x="445" d="M-73 1481L205 1192H373L189 1481H-73Z" />
<glyph unicode="a" glyph-name="a" horiz-adv-x="1065" d="M733 353Q733 254 651 204T477 154Q400 154 335 186Q270 219 270 291Q270 393 340 425T548 475Q687 492 733 522V353ZM963 772Q963 926 841 1000Q720 1073 549 1073Q353 1073 221 993T74 723H305Q323
891 535 891Q750 891 750 748Q750 689 711 664Q673 639 603 629T441 606Q314 588 233 561T96 467T41 279Q41 178 91 109T223 7T404 -27Q505 -27 601 8Q697 41 756 101Q775 -27 930 -27Q1007 -27 1073 0V158Q1045 154 1032 154Q963 157 963 230V772Z" />
<glyph unicode="b" glyph-name="b" horiz-adv-x="1204" d="M914 522Q914 619 882 704T785 840T631 891Q536 891 469 840Q400 788 366 703T331 522Q331 427 366 342T469 206T631 154Q729 154 793 206T885 341Q914 424 914 522ZM118 0V1450H346L350 912Q395 986
481 1029T658 1073Q817 1073 926 1000T1090 801T1145 518Q1145 371 1096 246Q1046 122 945 47T699 -29Q584 -29 509 -5T397 51T348 110T334 142V0H118Z" />
<glyph unicode="c" glyph-name="c" horiz-adv-x="1065" d="M1024 699Q1010 883 880 978T555 1073Q390 1073 275 1000T101 799T42 510Q42 356 101 234T276 41T549 -29Q748 -29 871 81Q993 189 1024 391H795Q786 318 753 264T668 182T549 154Q458 154 394 204Q329
255 296 337T263 514Q263 611 298 698Q331 785 397 838T555 891Q656 891 720 842Q784 791 795 699H1024Z" />
<glyph unicode="d" glyph-name="d" horiz-adv-x="1204" d="M291 510Q291 363 363 259T576 154Q668 154 735 206T835 345T869 527Q869 622 836 706T737 841Q672 891 580 891Q430 891 361 782T291 510ZM1090 1450V0H868L867 142Q825 56 738 14T545 -29Q387 -29 277
44Q168 115 113 242T57 531Q57 667 95 771Q134 874 198 941Q263 1008 343 1040T510 1073Q620 1073 714 1033Q768 1009 797 984T842 935T858 912V1450H1090Z" />
<glyph unicode="e" glyph-name="e" horiz-adv-x="1065" d="M1037 465Q1041 492 1041 541Q1041 685 980 807T805 1001T545 1073Q396 1073 281 999T105 798T43 522Q43 361 103 236T278 41T553 -29Q727 -29 856 67Q986 161 1025 328H807Q749 154 553 154Q462 154
399 196Q336 239 305 310Q275 381 275 465H1037ZM275 618Q281 736 355 813T545 891Q659 891 730 811Q802 732 808 618H275Z" />
<glyph unicode="f" glyph-name="f" horiz-adv-x="576" d="M-8 877H164V0H391L392 877H589L588 1047H392V1156Q392 1262 525 1262Q568 1262 613 1252V1430Q562 1450 453 1450Q319 1450 242 1385Q164 1318 164 1137V1047H-8V877Z" />
<glyph unicode="g" glyph-name="g" horiz-adv-x="1164" d="M555 183Q647 183 712 233T810 365T844 539Q844 630 811 711T712 841T555 891Q469 891 407 841Q343 790 312 708Q280 627 280 535Q280 443 311 363T406 233T555 183ZM1065 1047V51Q1065 -66 1032 -152T933
-297Q868 -355 773 -383T555 -412Q445 -412 343 -381T172 -277Q104 -205 93 -92H322Q342 -179 405 -210Q469 -242 568 -242Q840 -242 840 25L836 183Q789 98 705 49T522 0Q364 0 259 73T103 270T52 549Q52 692 111 812Q168 932 277 1003Q384 1073 527 1073Q631
1073 712 1031Q750 1012 777 985T822 930T840 903V1047H1065Z" />
<glyph unicode="h" glyph-name="h" horiz-adv-x="1118" d="M107 0V1450H334L338 908Q379 982 462 1027T647 1073Q819 1073 917 983T1016 717V0H789V658Q786 781 735 836T580 891Q471 891 403 814T334 619V0H107Z" />
<glyph unicode="i" glyph-name="i" horiz-adv-x="445" d="M106 0V1046H334V0H106ZM106 1227V1450H334V1227H106Z" />
<glyph unicode="j" glyph-name="j" horiz-adv-x="445" d="M107 -77V1046H334V-92Q334 -252 265 -332T37 -412Q-5 -412 -62 -404V-221Q-8 -230 13 -230Q73 -230 90 -197T107 -77ZM106 1227V1450H334V1227H106Z" />
<glyph unicode="k" glyph-name="k" horiz-adv-x="1065" d="M123 0V1450H350V627L765 1047H1045L648 662L1082 0H803L486 508L350 373V0H123Z" />
<glyph unicode="l" glyph-name="l" horiz-adv-x="445" d="M106 0V1450H334V0H106Z" />
<glyph unicode="m" glyph-name="m" horiz-adv-x="1694" d="M99 0V1047H314L318 899Q369 978 464 1025T658 1073Q750 1073 822 1030T930 899Q1046 1073 1252 1073Q1424 1073 1514 990T1604 719V0H1372V615Q1372 711 1361 768T1309 858T1184 891Q962 891 962 615V0H733V674Q733
786 692 838T549 891Q458 891 392 819T325 623V0H99Z" />
<glyph unicode="n" glyph-name="n" horiz-adv-x="1118" d="M107 0V1047H322L326 889Q375 977 459 1025T647 1073Q819 1073 917 983T1016 717V0H789V658Q786 781 735 836T580 891Q471 891 403 814T334 619V0H107Z" />
<glyph unicode="o" glyph-name="o" horiz-adv-x="1164" d="M580 154Q488 154 421 206T320 343T286 522Q286 617 320 702T420 839T580 891Q675 891 742 839T843 702T877 522Q877 428 843 343T742 206T580 154ZM580 -29Q743 -29 863 41T1046 237T1110 522Q1110 684
1047 808T864 1003T580 1073Q417 1073 299 1003T120 808Q57 683 57 522Q57 363 120 238Q181 112 299 42T580 -29Z" />
<glyph unicode="p" glyph-name="p" horiz-adv-x="1204" d="M914 522Q914 619 882 704T785 840T631 891Q536 891 469 840Q400 788 366 703T331 522Q331 427 366 342T469 206T631 154Q729 154 793 206T885 341Q914 424 914 522ZM118 -383V1047H334L336 893Q385 993
467 1032Q551 1073 658 1073Q817 1073 926 1000T1090 801T1145 518Q1145 371 1096 246Q1046 122 945 47T699 -29Q592 -29 498 13Q453 32 425 53T379 94T355 123T346 133V-383H118Z" />
<glyph unicode="q" glyph-name="q" horiz-adv-x="1204" d="M291 522Q291 425 320 342T413 206T576 154Q669 154 736 206Q804 257 837 341T871 520Q871 616 838 701Q803 787 736 839T576 891Q485 891 421 840T323 704Q291 620 291 522ZM1090 1047V-383H858L856
131Q809 55 711 13Q616 -29 510 -29Q363 -29 260 47Q158 122 107 247Q57 372 57 518Q57 673 112 800T278 1000T545 1073Q665 1073 738 1036T838 960T871 903V1047H1090Z" />
<glyph unicode="r" glyph-name="r" horiz-adv-x="666" d="M102 0V1047H314L315 844Q367 1069 707 1069V848Q642 856 613 856Q532 856 468 814T367 690Q330 609 330 500L329 0H102Z" />
<glyph unicode="s" glyph-name="s" horiz-adv-x="1028" d="M57 336Q59 218 120 136Q179 53 283 13Q387 -29 518 -29Q636 -29 741 6Q847 40 915 116T983 312Q983 408 937 469T818 562Q745 595 647 619Q577 634 513 648Q450 662 406 679Q363 695 336 721T309 789Q309
846 369 868T498 891Q685 891 711 752H951Q939 836 900 898T801 999T669 1055T514 1073Q409 1073 310 1045T144 950T78 776Q78 675 123 614T240 521Q310 490 412 467Q470 454 538 439T650 408T722 365T756 295Q756 154 522 154Q423 154 361 198T291 336H57Z" />
<glyph unicode="t" glyph-name="t" horiz-adv-x="629" d="M-5 877H167L168 258Q170 186 182 138T225 57Q255 25 310 9T455 -8Q481 -8 530 -4T604 0V178Q568 170 506 170Q435 170 415 201T395 316V877H604V1047H396V1362H168V1047H-5V877Z" />
<glyph unicode="u" glyph-name="u" horiz-adv-x="1118" d="M1016 1047V0H793V145Q753 73 662 20Q579 -29 490 -29Q391 -29 317 -3Q244 24 197 75Q151 127 129 202T107 381V1047H334V404Q334 269 383 212T531 154Q666 154 727 232Q789 310 789 441V1047H1016Z" />
<glyph unicode="v" glyph-name="v" horiz-adv-x="1028" d="M387 0L12 1047H262L531 242L785 1047H1020L647 0H387Z" />
<glyph unicode="w" glyph-name="w" horiz-adv-x="1518" d="M326 0L4 1047H248L455 266L652 1047H879L1069 266L1282 1047H1514L1188 0H957L760 781L563 0H326Z" />
<glyph unicode="x" glyph-name="x" horiz-adv-x="1065" d="M3 0H274L527 383L793 0H1061L665 561L1020 1047H756L531 723L314 1047H36L391 549L3 0Z" />
<glyph unicode="y" glyph-name="y" horiz-adv-x="1028" d="M391 4L-1 1047H254L527 266L793 1047H1028L652 13L629 -56Q567 -201 535 -260T437 -366T258 -412Q176 -412 102 -400V-207Q154 -217 187 -217Q325 -217 368 -76L391 4Z" />
<glyph unicode="z" glyph-name="z" horiz-adv-x="979" d="M69 865H608L32 162V0H946V183H321L914 885V1047H69V865Z" />
<glyph unicode="{" glyph-name="braceleft" horiz-adv-x="576" d="M-17 457Q19 457 62 441T139 389T172 295V-111Q172 -199 215 -260T320 -353Q382 -383 432 -383H613V-203H503Q432 -203 410 -164T388 -60L387 320Q383 530 180 543V547Q250 554 317 605T387 764L388
1155Q388 1219 410 1260T503 1301H613V1481H432Q383 1481 321 1449Q259 1418 216 1355Q172 1293 172 1204V789Q172 734 139 700T63 652T-17 637V457Z" />
<glyph unicode="|" glyph-name="bar" horiz-adv-x="400" d="M102 -33H305V449V1481H102V1002V-33Z" />
<glyph unicode="}" glyph-name="braceright" horiz-adv-x="576" d="M596 637Q532 637 468 676T404 803V1204Q404 1292 360 1355T256 1449T150 1481H-34V1301H73Q188 1301 188 1155V776Q188 567 395 547V543Q321 533 255 486T188 332V-60Q188 -203 73 -203H-34V-383H149Q195
-383 256 -353Q316 -322 359 -260Q403 -198 403 -111L404 307Q404 362 437 396T515 443Q559 457 596 457V637Z" />
<glyph unicode="~" glyph-name="asciitilde" horiz-adv-x="1164" d="M971 686Q930 623 889 585T795 547Q747 547 702 564T587 616T469 668T369 686Q200 686 119 510L189 340Q260 479 357 479Q412 479 461 462T581 409T697 357T795 340Q876 340 929 384T1045 514L971 686Z" />
</font>
</defs>
</svg>
